<svg width="31" height="30" viewBox="0 0 31 30" fill="none" xmlns="http://www.w3.org/2000/svg">
<path d="M13.2623 0.0371635C5.94908 0.0371635 0 5.87184 0 13.0444C0 20.217 5.94908 26.0516 13.2623 26.0516C15.4979 26.0516 17.6957 25.5314 19.5524 24.5279C19.7011 24.7035 19.866 24.8652 20.045 25.0111L23.8342 28.7274C24.1841 29.1136 24.6108 29.4255 25.088 29.644C25.5653 29.8626 26.083 29.9832 26.6095 29.9984C27.136 30.0136 27.6601 29.9231 28.1496 29.7324C28.6391 29.5418 29.0838 29.255 29.4562 28.8897C29.8286 28.5245 30.121 28.0884 30.3154 27.6083C30.5098 27.1281 30.6021 26.6141 30.5866 26.0978C30.5711 25.5814 30.4481 25.0736 30.2253 24.6056C30.0024 24.1375 29.6844 23.719 29.2907 23.3759L25.5015 19.6595C25.3169 19.4784 25.1137 19.3165 24.8952 19.1764C25.9183 17.3554 26.5625 15.2371 26.5625 13.0072C26.5625 5.83468 20.6134 0 13.3002 0L13.2623 0.0371635ZM13.2623 3.75352C18.5293 3.75352 22.7353 7.87867 22.7353 13.0444C22.7353 15.4972 21.8259 17.7642 20.2345 19.4365C20.1966 19.4737 20.1587 19.5109 20.1208 19.548C19.9418 19.6939 19.7769 19.8556 19.6282 20.0312C17.9609 21.5177 15.6874 22.3725 13.2244 22.3725C7.95737 22.3725 3.75133 18.2473 3.75133 13.0816C3.75133 7.91584 7.95737 3.79068 13.2244 3.79068L13.2623 3.75352Z" fill="black"/>
</svg>
